<svg xmlns="http://www.w3.org/2000/svg" xmlns:xlink="http://www.w3.org/1999/xlink" width="1026" zoomAndPan="magnify" viewBox="0 0 769.5 525.749985" height="701" preserveAspectRatio="xMidYMid meet" version="1.0"><defs><filter x="0%" y="0%" width="100%" height="100%" id="c2fb491399"><feColorMatrix values="0 0 0 0 1 0 0 0 0 1 0 0 0 0 1 0 0 0 1 0" color-interpolation-filters="sRGB"></feColorMatrix></filter><filter x="0%" y="0%" width="100%" height="100%" id="c093903cd4"><feColorMatrix values="0 0 0 0 1 0 0 0 0 1 0 0 0 0 1 0.2126 0.7152 0.0722 0 0" color-interpolation-filters="sRGB"></feColorMatrix></filter><clipPath id="838ed00fb1"><path d="M 0 0.046875 L 767.5 0.046875 L 767.5 524.703125 L 0 524.703125 Z M 0 0.046875 " clip-rule="nonzero"></path></clipPath><mask id="c842c14dbf"><g filter="url(#c2fb491399)"><g filter="url(#c093903cd4)" transform="matrix(0.342024, 0, 0, 0.341797, 0.000000000000010769, 0.0457717)"><image x="0" y="0" width="2244" height="1535" preserveAspectRatio="xMidYMid meet"></image></g></g></mask><clipPath id="19c635d074"><path d="M 1 0.046875 L 768 0.046875 L 768 524.703125 L 1 524.703125 Z M 1 0.046875 " clip-rule="nonzero"></path></clipPath><mask id="18704cc870"><g filter="url(#c2fb491399)"><g filter="url(#c093903cd4)" transform="matrix(0.342024, 0, 0, 0.341797, 0.85026, 0.0457717)"><image x="0" y="0" width="2244" height="1535" preserveAspectRatio="xMidYMid meet"></image></g></g></mask></defs><g clip-path="url(#838ed00fb1)"><g mask="url(#c842c14dbf)"><g transform="matrix(0.342024, 0, 0, 0.341797, 0.000000000000010769, 0.0457717)"><image x="0" y="0" width="2244" height="1535" preserveAspectRatio="xMidYMid meet"></image></g></g></g><g clip-path="url(#19c635d074)"><g mask="url(#18704cc870)"><g transform="matrix(0.342024, 0, 0, 0.341797, 0.85026, 0.0457717)"><image x="0" y="0" width="2244" height="1535" preserveAspectRatio="xMidYMid meet"></image></g></g></g></svg>