<svg width="27" height="27" viewBox="0 0 27 27" fill="none" xmlns="http://www.w3.org/2000/svg">
<path d="M13.249 0.250854C12.0447 0.250854 11.0595 1.23603 11.0595 2.44027C11.0595 3.50639 11.8311 4.40093 12.8444 4.59192V8.41286C11.8106 8.49918 10.8674 8.91031 10.1185 9.5448L7.41321 6.8396C7.9927 5.98823 7.90637 4.81206 7.15315 4.05897C6.30174 3.20761 4.90861 3.20761 4.0572 4.05897C3.2058 4.91034 3.2058 6.30342 4.0572 7.15478C4.81043 7.90798 5.98773 7.99538 6.83905 7.41484L9.54329 10.12C8.90985 10.8689 8.49873 11.8099 8.41238 12.8425H4.59017C4.39701 11.8314 3.50351 11.061 2.43951 11.061C1.23522 11.061 0.25 12.0462 0.25 13.2504C0.25 14.4547 1.23522 15.4398 2.43951 15.4398C3.50567 15.4398 4.39917 14.6683 4.59017 13.6562H8.41238C8.49871 14.6899 8.90877 15.6319 9.54329 16.3819L6.84013 19.0871C5.98872 18.5065 4.8114 18.5928 4.05718 19.346C3.20577 20.1974 3.20577 21.5905 4.05718 22.4419C4.90858 23.2932 6.30171 23.2932 7.15312 22.4419C7.90634 21.6887 7.99267 20.5125 7.41426 19.6623L10.1196 16.9571C10.8685 17.5905 11.8116 18.0027 12.8454 18.088V21.9089C11.8332 22.0999 11.0606 22.9945 11.0606 24.0606C11.0606 25.2648 12.0458 26.25 13.2501 26.25C14.4544 26.25 15.4396 25.2648 15.4396 24.0606C15.4396 22.9955 14.6691 22.1021 13.658 21.91V18.088C14.6907 18.0016 15.6327 17.5894 16.3806 16.9571L19.087 19.6634C18.5075 20.5137 18.5927 21.6888 19.346 22.4421C20.1974 23.2934 21.5905 23.2934 22.4419 22.4421C23.2933 21.5907 23.2933 20.1976 22.4419 19.3463C21.6887 18.5931 20.5135 18.5089 19.6631 19.0884L16.9567 16.381C17.5901 15.6322 18.0013 14.689 18.0876 13.6553H21.9098C22.1008 14.6675 22.9954 15.439 24.0605 15.439C25.2648 15.439 26.25 14.4538 26.25 13.2496C26.25 12.0453 25.2648 11.0601 24.0605 11.0601C22.9954 11.0601 22.1019 11.8306 21.9098 12.8417H18.0876C18.0013 11.809 17.5901 10.867 16.9567 10.1192L19.662 7.41399C20.5134 7.99237 21.6897 7.90602 22.4417 7.15285C23.2931 6.30148 23.2931 4.90841 22.4417 4.05704C21.5903 3.20567 20.1971 3.20567 19.3457 4.05704C18.5925 4.81024 18.5062 5.98748 19.0857 6.83877L16.3803 9.54398C15.6314 8.91056 14.6905 8.49946 13.6577 8.41203V4.58999C14.6689 4.39792 15.4393 3.50338 15.4393 2.43942C15.4393 1.23518 14.4541 0.25 13.2498 0.25L13.249 0.250854ZM13.249 1.06338C14.0141 1.06338 14.626 1.6752 14.626 2.44027C14.626 3.20531 14.0141 3.81715 13.249 3.81715C12.4839 3.81715 11.8721 3.20534 11.8721 2.44027C11.8721 1.67522 12.4839 1.06338 13.249 1.06338ZM5.60462 4.22715C5.9564 4.22715 6.30821 4.36203 6.57797 4.63289C7.11859 5.17349 7.11859 6.03889 6.57797 6.57952C6.03734 7.12012 5.17298 7.12012 4.63126 6.57952C4.09063 6.03892 4.09063 5.17352 4.63126 4.63289C4.90211 4.36204 5.25282 4.22715 5.60352 4.22715H5.60462ZM20.8934 4.22715C21.2452 4.22715 21.597 4.36203 21.8668 4.63289C22.4074 5.17349 22.4074 6.03889 21.8668 6.57952C21.3315 7.11473 20.4791 7.12012 19.9373 6.5957V6.59462C19.9319 6.58923 19.9265 6.58383 19.9212 6.57844C19.9179 6.5752 19.9136 6.57196 19.9104 6.56873C19.3794 6.02705 19.3827 5.16919 19.9212 4.63182C20.192 4.36098 20.5427 4.22608 20.8934 4.22608L20.8934 4.22715ZM13.249 9.20912C14.354 9.20912 15.3533 9.64939 16.0828 10.3648V10.3637C16.0904 10.3745 16.0979 10.3831 16.1066 10.3928C16.1163 10.4015 16.1249 10.409 16.1346 10.4166C16.85 11.1449 17.2914 12.1442 17.2914 13.2502C17.2914 14.3552 16.85 15.3555 16.1346 16.0839C16.1249 16.0915 16.1163 16.099 16.1066 16.1076C16.0979 16.1174 16.0882 16.1281 16.0796 16.1389C15.3512 16.8533 14.353 17.2925 13.2491 17.2925C12.1495 17.2925 11.1535 16.8565 10.425 16.1465C10.4142 16.1336 10.4034 16.1195 10.3915 16.1077C10.3818 16.099 10.3732 16.0915 10.3635 16.0839C9.64806 15.3556 9.20669 14.3553 9.20669 13.2503C9.20669 12.1453 9.64806 11.1461 10.3635 10.4166C10.3732 10.4091 10.3818 10.4015 10.3915 10.3929C10.4034 10.381 10.4142 10.368 10.425 10.354C11.1534 9.644 12.1483 9.20807 13.2491 9.20807L13.249 9.20912ZM2.40288 11.8755H2.43849C3.20357 11.8755 3.81543 12.4862 3.81543 13.2513C3.81543 14.0163 3.20359 14.6282 2.43849 14.6282C1.67341 14.6282 1.06155 14.0163 1.06155 13.2513C1.06155 12.4981 1.65396 11.8938 2.40288 11.8755ZM24.0239 11.8755H24.0595C24.8246 11.8755 25.4365 12.4862 25.4365 13.2513C25.4365 14.0163 24.8246 14.6282 24.0595 14.6282C23.2945 14.6282 22.6826 14.0163 22.6826 13.2513C22.6826 12.4981 23.275 11.8938 24.0239 11.8755ZM5.60462 19.514C5.95532 19.514 6.30605 19.6478 6.57581 19.9176C6.57581 19.9176 6.57797 19.9208 6.58013 19.9219L6.58337 19.9251C7.1186 20.4668 7.11752 21.3279 6.57905 21.8663C6.03843 22.4069 5.17407 22.4069 4.63234 21.8663C4.09172 21.3257 4.09172 20.4603 4.63234 19.9197C4.90319 19.6489 5.25392 19.514 5.60462 19.514ZM20.8934 19.514C21.2452 19.514 21.597 19.6489 21.8668 19.9198C22.4074 20.4604 22.4074 21.3258 21.8668 21.8664C21.3262 22.407 20.4618 22.407 19.9201 21.8664C19.3848 21.3312 19.3784 20.4787 19.9028 19.937C19.9093 19.9327 19.9147 19.9273 19.9212 19.9219C19.9298 19.9133 19.9373 19.9047 19.946 19.8949L19.947 19.8939C20.2136 19.6403 20.5535 19.514 20.8934 19.514ZM13.2134 22.6833H13.249C14.0141 22.6833 14.626 23.2951 14.626 24.0602C14.626 24.8252 14.0141 25.436 13.249 25.436C12.4839 25.436 11.8721 24.8253 11.8721 24.0602C11.8721 23.307 12.4645 22.7027 13.2134 22.6833Z" fill="url(#paint0_linear_184_4)" stroke="url(#paint1_linear_184_4)" stroke-width="0.5"/>
<defs>
<linearGradient id="paint0_linear_184_4" x1="13.25" y1="0.25" x2="13.25" y2="26.25" gradientUnits="userSpaceOnUse">
<stop stop-color="#FF8E3E"/>
<stop offset="1" stop-color="#21614A"/>
</linearGradient>
<linearGradient id="paint1_linear_184_4" x1="13.25" y1="0.25" x2="13.25" y2="26.25" gradientUnits="userSpaceOnUse">
<stop stop-color="#FF8E3E"/>
<stop offset="1" stop-color="#21614A"/>
</linearGradient>
</defs>
</svg>
